<svg width="150" height="148" viewBox="0 0 150 148" fill="none" xmlns="http://www.w3.org/2000/svg">
<g clip-path="url(#clip0_99_554)">
<path d="M68.1105 71.8467C85.4624 71.8467 102.814 71.949 120.162 71.7888C126.369 71.731 128.377 73.128 128.288 79.9616C128.104 94.2518 124.044 107.189 115.269 118.503C112.496 122.08 109.084 125.177 105.86 128.393C105.283 128.967 104.201 129.292 103.346 129.296C79.8588 129.345 56.3711 129.319 32.8835 129.372C31.4792 129.372 30.5848 128.771 29.668 127.953C15.7641 115.576 8.46557 100.129 7.93786 81.5544C7.89314 79.9483 7.87972 78.3333 7.94681 76.7272C8.05861 73.9911 9.96374 72.078 12.7141 71.8778C13.3268 71.8333 13.9395 71.8511 14.5522 71.8511C32.4049 71.8511 50.2577 71.8511 68.1105 71.8511V71.8467ZM20.9428 99.248C18.3356 99.248 17.0968 101.063 17.9063 102.994C20.9205 110.192 25.2898 116.483 30.9425 121.88C32.0919 122.979 33.6571 122.974 34.7036 122.005C35.7993 120.986 35.9021 119.317 34.7126 118.156C29.5964 113.173 25.6431 107.421 22.7362 100.916C22.3695 100.102 21.323 99.5861 20.9428 99.248ZM13.9663 89.4958C14.1989 90.5769 14.4538 92.2186 14.9233 93.8024C15.3214 95.1371 16.7122 95.8267 17.9689 95.4752C19.3776 95.0793 20.1826 94.1094 20.0171 92.659C19.8427 91.1286 19.5028 89.6115 19.1272 88.1122C18.7649 86.6707 17.7095 86.03 16.256 86.168C14.825 86.3014 13.9529 87.4137 13.9752 89.5002L13.9663 89.4958Z" fill="#FEFEFE"/>
<path d="M69.5104 134.662C91.7683 134.662 114.031 134.662 136.288 134.662C139.106 134.662 139.553 135.294 138.569 137.936C137.523 140.739 135.425 142.599 132.885 144.018C128.207 146.63 123.087 147.715 117.81 147.884C111.96 148.076 106.097 147.978 100.239 147.978C75.0782 147.982 49.918 147.969 24.7577 147.991C18.8948 147.996 13.1794 147.293 7.80387 144.841C4.43188 143.302 1.52499 141.198 0.326454 137.451C-0.398032 135.187 0.00893204 134.658 2.40153 134.658C24.7712 134.658 47.1453 134.658 69.5149 134.658L69.5104 134.662Z" fill="#FEFEFE"/>
<path d="M132.889 90.5769C133.131 88.1255 133.386 85.4962 133.654 82.7689C137.147 82.106 140.532 82.2929 143.743 83.8678C149.289 86.5906 151.538 93.3887 148.891 99.4749C147.003 103.813 143.784 107.118 140.233 110.121C134.566 114.913 128.158 118.445 121.168 120.941C120.917 121.03 120.654 121.075 120.551 121.101C122.68 117.351 124.808 113.547 127.009 109.783C127.29 109.303 127.916 108.991 128.426 108.68C132.635 106.113 136.637 103.27 139.647 99.3281C140.684 97.9711 141.471 96.2538 141.825 94.5899C142.29 92.3877 141.096 90.8972 138.828 90.6259C136.928 90.399 134.978 90.5814 132.889 90.5814V90.5769Z" fill="#FEFEFE"/>
<path d="M79.085 45.1661C78.9553 50.1223 76.2094 55.3899 72.6987 60.3461C71.8446 61.5473 70.2704 61.7252 69.121 60.9645C67.8867 60.1459 67.5871 58.7088 68.3697 57.2941C69.7114 54.8738 71.2945 52.5514 72.3633 50.0155C75.1808 43.3153 73.9644 38.5994 68.4636 33.8034C66.8268 32.3753 65.1319 31.0228 63.504 29.5902C57.167 24.0023 55.4095 17.1642 58.2448 9.28504C59.1929 6.65124 60.6329 4.17315 62.0059 1.71286C62.9763 -0.0266923 64.5416 -0.422652 65.9235 0.431554C67.2964 1.28131 67.444 2.77617 66.5674 4.51572C65.2526 7.12728 63.7992 9.72104 62.8958 12.4794C61.4066 17.0263 62.5246 21.1727 65.9861 24.5273C68.1416 26.6138 70.5119 28.4735 72.7479 30.48C77.1396 34.4174 79.152 38.7017 79.0939 45.1661H79.085Z" fill="#FEFEFE"/>
<path d="M89.6437 38.9108C89.5945 36.2681 88.624 34.186 86.8486 32.531C85.346 31.1296 83.7405 29.8394 82.1528 28.5314C75.3373 22.9256 73.8839 16.092 77.8909 8.24397C78.5438 6.96267 79.2862 5.71695 80.0733 4.51572C81.0885 2.96303 82.5956 2.57152 83.9238 3.41237C85.2476 4.25323 85.3951 5.73475 84.608 7.36752C83.3916 9.8901 82.1126 12.4216 81.2942 15.0821C80.4982 17.6758 81.3568 20.194 83.244 22.1337C84.9032 23.8377 86.7681 25.3548 88.6061 26.8719C91.9826 29.6525 94.5004 32.9225 94.9119 37.4249C95.2473 41.0819 94.1963 44.4498 92.5148 47.6353C91.6651 49.2503 90.6723 50.7985 89.6303 52.3023C88.6419 53.7304 87.1303 54.0018 85.8558 53.1343C84.5767 52.2667 84.2816 50.7763 85.2476 49.3348C87.2019 46.4163 89.0578 43.4666 89.5185 39.8852C89.5676 39.5026 89.6124 39.1155 89.6392 38.9108H89.6437Z" fill="#FEFEFE"/>
<path d="M55.2485 43.5734C55.0561 41.0997 54.0812 39.0755 52.3639 37.4471C50.8344 35.9968 49.1708 34.6799 47.543 33.3274C40.7408 27.6816 39.3187 20.8524 43.366 12.9999C44.0234 11.7186 44.7658 10.4729 45.5618 9.27169C46.5725 7.74568 48.102 7.39866 49.4347 8.29736C50.6824 9.13822 50.8434 10.5797 50.0787 12.1324C48.907 14.5037 47.619 16.8572 46.8185 19.3575C45.8659 22.3206 46.7559 25.1101 48.9651 27.3079C50.5348 28.8739 52.2834 30.2709 54.0052 31.6768C57.6902 34.6843 60.3109 38.2613 60.3914 43.2219C60.4585 47.4218 58.8888 51.1278 56.76 54.6425C56.2144 55.5456 55.6286 56.431 54.9891 57.2674C54.0365 58.5086 52.4713 58.7756 51.2906 57.9614C50.0876 57.1339 49.8059 55.6657 50.593 54.2776C51.7378 52.2534 53.0258 50.2958 53.9873 48.187C54.6402 46.7544 54.8415 45.1172 55.244 43.5734H55.2485Z" fill="#FEFEFE"/>
</g>
<defs>
<clipPath id="clip0_99_554">
<rect width="150" height="148" fill="white"/>
</clipPath>
</defs>
</svg>
