<svg width="58" height="56" viewBox="0 0 58 56" fill="none" xmlns="http://www.w3.org/2000/svg">
<rect width="57.5006" height="56" rx="28" fill="#FEFEFE"/>
<path d="M41.5006 29.0249C41.436 29.4912 41.3968 29.9628 41.3023 30.4234C40.3919 34.866 37.7551 37.9174 33.5339 39.6824C33.2903 39.7842 33.0387 39.8703 32.7852 39.9453C32.2421 40.1058 31.8768 39.8409 31.8768 39.2898C31.8768 38.3277 31.8741 37.3655 31.8881 36.4034C31.9021 35.4315 31.8122 34.4955 31.0902 33.7787C31.8016 33.615 32.5223 33.4956 33.2131 33.2816C35.3986 32.6033 36.5107 31.0535 36.7582 28.8735C36.8328 28.2147 36.8281 27.5377 36.7689 26.8769C36.6877 25.9774 36.2711 25.1953 35.6728 24.5124C35.5743 24.3996 35.5577 24.3102 35.6029 24.1661C35.909 23.1772 35.8106 22.204 35.4672 21.2399C35.3966 21.0416 35.2342 21.0534 35.1045 21.0795C34.628 21.1754 34.1348 21.2452 33.6903 21.4252C33.1346 21.6502 32.6235 21.9803 32.0857 22.2516C31.9806 22.3045 31.8329 22.3364 31.7217 22.309C29.7246 21.827 27.7307 21.8296 25.7336 22.309C25.6178 22.3371 25.456 22.2973 25.3509 22.2334C24.5629 21.7598 23.7623 21.3189 22.8446 21.131C22.0913 20.9764 22.0068 21.026 21.8224 21.7455C21.6094 22.5765 21.5875 23.4035 21.8677 24.2274C21.8903 24.2939 21.871 24.4067 21.8251 24.4576C20.7616 25.6337 20.4987 27.0289 20.6485 28.5402C20.7277 29.3399 20.8934 30.1174 21.2554 30.8447C21.8976 32.1336 22.9731 32.9164 24.3407 33.3214C24.9962 33.5158 25.6763 33.6286 26.3445 33.7787C26.238 33.9254 26.0809 34.0872 25.9911 34.279C25.854 34.5718 25.7662 34.8875 25.6504 35.1902C25.6178 35.2743 25.5778 35.395 25.5099 35.4211C24.5263 35.7981 23.5454 35.8934 22.6576 35.2091C22.3521 34.9736 22.1112 34.6436 21.8843 34.3272C21.4251 33.6887 20.8654 33.2105 20.0469 33.1107C19.8871 33.0912 19.7148 33.1133 19.557 33.1512C19.3547 33.2008 19.3135 33.341 19.4532 33.4995C19.5551 33.615 19.6755 33.7239 19.8086 33.8022C20.4714 34.1929 20.924 34.7669 21.1849 35.4576C21.7705 37.0068 23.224 37.5521 24.7293 37.4151C25.0008 37.3903 25.271 37.346 25.5792 37.3062C25.5792 37.7419 25.5785 38.1724 25.5792 38.6029C25.5792 38.8149 25.5858 39.0269 25.5871 39.2389C25.5905 39.867 25.2025 40.1377 24.5869 39.9323C22.9644 39.3902 21.5043 38.569 20.2252 37.449C18.0224 35.5203 16.6129 33.1329 16.1683 30.2662C15.5228 26.1177 16.7353 22.5112 19.7833 19.5714C22.4999 16.9519 25.8294 15.8025 29.6201 16.0276C35.199 16.3589 39.8708 20.2224 41.1705 25.5391C41.3109 26.1144 41.3622 26.7112 41.4553 27.2983C41.4693 27.385 41.4853 27.4711 41.5006 27.5572V29.0249Z" fill="#00677E"/>
</svg>
