<svg width="58" height="56" viewBox="0 0 58 56" fill="none" xmlns="http://www.w3.org/2000/svg">
<rect x="0.500488" width="56.7497" height="56" rx="28" fill="#FEFEFE"/>
<path d="M25.2499 39.9994C25.2506 34.7681 25.2519 29.5368 25.2525 24.3055C25.2525 24.2053 25.2525 24.1051 25.2525 23.9912H30.1752V26.2118C30.252 26.1267 30.2856 26.0985 30.3076 26.0634C31.1781 24.6642 32.4909 23.9017 34.1209 23.6569C35.3691 23.4697 36.6135 23.5698 37.8114 23.9868C39.3865 24.5346 40.297 25.6715 40.7697 27.1841C41.1158 28.2922 41.2334 29.4341 41.2392 30.5835C41.2553 33.7226 41.2482 36.861 41.2502 40H36.126C36.1247 37.2128 36.1298 34.4256 36.115 31.6384C36.1124 31.1182 36.0569 30.5936 35.9729 30.0789C35.7656 28.8062 35.0546 28.0943 33.8148 27.9829C32.128 27.8314 30.9159 28.4831 30.5672 30.2016C30.4393 30.8321 30.3902 31.4863 30.3851 32.1305C30.3644 34.7537 30.3747 37.3768 30.3735 40H25.2493L25.2499 39.9994Z" fill="#00677E"/>
<path d="M16.8875 39.9994C16.8939 39.8911 16.9062 39.7822 16.9062 39.6739C16.9068 34.5584 16.9068 29.4429 16.9068 24.328C16.9068 24.2203 16.9068 24.1127 16.9068 23.9912H22.0439V24.3036C22.0439 29.4266 22.0439 34.5502 22.0446 39.6732C22.0446 39.7822 22.0543 39.8911 22.0594 39.9994H16.8875Z" fill="#00677E"/>
<path d="M16.5005 18.5356C16.5179 18.4686 16.5392 18.4016 16.5528 18.3334C16.8447 16.8928 18.2609 15.8648 19.7494 16.0145C21.285 16.1691 22.4461 17.4087 22.4448 18.8912C22.4435 20.3443 21.2669 21.6389 19.8294 21.771C18.2434 21.9169 16.8524 20.9265 16.5534 19.4409C16.5399 19.3726 16.5186 19.3063 16.5005 19.2386C16.5005 19.0045 16.5005 18.7697 16.5005 18.5356Z" fill="#00677E"/>
</svg>
