<svg width="30" height="24" viewBox="0 0 30 24" fill="none" xmlns="http://www.w3.org/2000/svg">
<path d="M3.46155 23.25C2.70385 23.25 2.0625 22.9875 1.5375 22.4625C1.0125 21.9375 0.75 21.2961 0.75 20.5384V3.46161C0.75 2.70391 1.0125 2.06256 1.5375 1.53756C2.0625 1.01256 2.70385 0.750061 3.46155 0.750061H26.5384C27.2961 0.750061 27.9374 1.01256 28.4624 1.53756C28.9874 2.06256 29.2499 2.70391 29.2499 3.46161V20.5384C29.2499 21.2961 28.9874 21.9375 28.4624 22.4625C27.9374 22.9875 27.2961 23.25 26.5384 23.25H3.46155ZM15 12.8365L2.99996 5.16344V20.5384C2.99996 20.6731 3.04324 20.7836 3.12979 20.8702C3.21634 20.9567 3.32693 21 3.46155 21H26.5384C26.673 21 26.7836 20.9567 26.8701 20.8702C26.9567 20.7836 27 20.6731 27 20.5384V5.16344L15 12.8365ZM15 10.5L26.7692 3.00002H3.23074L15 10.5ZM2.99996 5.16344V3.00002V20.5384C2.99996 20.6731 3.04324 20.7836 3.12979 20.8702C3.21634 20.9567 3.32693 21 3.46155 21H2.99996V5.16344Z" fill="#0EE87E"/>
</svg>
