<svg width="237" height="48" viewBox="0 0 237 48" fill="none" xmlns="http://www.w3.org/2000/svg">
<g clip-path="url(#clip0_79_202)">
<path d="M11.7153 38.1935C9.62329 38.1935 7.78696 37.7752 6.20633 36.9438C4.62569 36.1124 3.31624 34.9536 2.27798 33.4701C1.23972 31.9892 0.48039 30.2744 0 28.3258C0.232447 28.17 0.573368 27.9673 1.02277 27.7179C1.47216 27.4685 1.9603 27.2138 2.48718 26.9566C3.01406 26.6994 3.52802 26.4578 4.03424 26.2318C4.53788 26.0057 4.95886 25.8316 5.29978 25.7069C5.62521 26.9696 6.09268 28.1388 6.70738 29.2144C7.31949 30.29 8.07365 31.1474 8.97502 31.7865C9.87382 32.4257 10.9043 32.7452 12.0666 32.7452C13.2288 32.7452 14.2412 32.3841 14.9618 31.6592C15.6824 30.9344 16.2093 29.8847 16.5425 28.5129C16.8756 27.1411 17.0409 25.5043 17.0409 23.6025C17.0409 22.636 17.0099 21.4902 16.9479 20.1651C16.886 18.8401 16.8033 17.4683 16.7026 16.0497C16.6019 14.6311 16.496 13.3009 16.3901 12.0616C16.2816 10.8223 16.1886 9.79864 16.1111 8.98803C16.0337 8.17742 15.9872 7.71755 15.9717 7.60843C16.4211 7.5149 16.9324 7.43695 17.5058 7.3746C18.0792 7.31224 18.6216 7.28107 19.1329 7.28107C19.6753 7.28107 20.166 7.29146 20.6077 7.31484C21.0493 7.33823 21.4703 7.38239 21.8758 7.44475C21.9688 8.4736 22.0644 9.68952 22.1651 11.0925C22.2658 12.4955 22.3665 13.966 22.4673 15.4989C22.568 17.0344 22.6455 18.5179 22.6997 19.9521C22.7539 21.3863 22.7824 22.6412 22.7824 23.7168C22.7824 26.1642 22.5422 28.2973 22.0618 30.1133C21.5814 31.9294 20.8685 33.4337 19.9233 34.6263C18.978 35.8188 17.8209 36.7126 16.4469 37.3023C15.0755 37.8947 13.4974 38.1909 11.7179 38.1909L11.7153 38.1935Z" fill="#0EE87E"/>
<path d="M53.2304 47.3363C51.7427 47.1493 50.472 46.5803 49.4183 45.6294C48.3645 44.6784 47.5587 43.4781 47.0008 42.0284C46.443 40.5786 46.164 39.0275 46.164 37.3751C46.164 36.6736 46.2131 36.0267 46.3138 35.4343C46.4145 34.842 46.5334 34.2808 46.6728 33.7508C46.7968 33.3143 46.8949 32.8856 46.9621 32.4647C47.0318 32.0438 47.068 31.5995 47.068 31.1318C47.068 29.8536 46.6212 28.8013 45.7327 27.9751C44.8417 27.1489 43.6433 26.5721 42.1401 26.2448C42.0626 25.9954 42.0084 25.6706 41.9774 25.2731C41.9464 24.8756 41.9309 24.4833 41.9309 24.0935C41.9309 23.7038 41.9464 23.3453 41.9774 22.9711C42.0084 22.597 42.0471 22.293 42.0936 22.0592C43.3488 21.8566 44.3019 21.3447 44.9527 20.5263C45.6036 19.7079 45.929 18.7232 45.929 17.5697C45.929 16.8838 45.8748 16.2992 45.7663 15.8159C45.6578 15.3327 45.5261 14.865 45.3711 14.4129C45.2316 13.9609 45.1077 13.4828 44.9992 12.9736C44.8907 12.4669 44.8365 11.8564 44.8365 11.1367C44.8365 9.95197 45.0095 8.78801 45.3582 7.63964C45.7069 6.49387 46.2312 5.44163 46.9285 4.48292C47.6258 3.52422 48.504 2.73699 49.5655 2.12123C50.627 1.50548 51.8796 1.14434 53.3208 1.03522C53.5377 1.20669 53.7624 1.50288 53.9949 1.92377C54.2273 2.34467 54.4262 2.82013 54.5863 3.35014C54.749 3.88016 54.8369 4.39459 54.8549 4.89343C53.7237 5.0649 52.7887 5.47541 52.0527 6.12234C51.3166 6.76927 50.7742 7.54871 50.4255 8.46065C50.0769 9.37259 49.9038 10.3339 49.9038 11.3498C49.9038 11.9265 49.9426 12.4462 50.02 12.9034C50.0975 13.3633 50.1905 13.8024 50.299 14.2233C50.423 14.6754 50.5263 15.143 50.6141 15.6263C50.6993 16.1095 50.7406 16.6785 50.7406 17.3332C50.7406 18.5959 50.4694 19.7417 49.9271 20.7705C49.3847 21.7994 48.6512 22.623 47.7317 23.2388C46.8097 23.8545 45.7663 24.1949 44.604 24.2572L44.6505 23.8363C45.8128 23.9299 46.9414 24.2027 48.0339 24.6547C49.1264 25.1068 50.0278 25.8005 50.7406 26.7358C51.4535 27.6712 51.8099 28.9182 51.8099 30.4771C51.8099 31.1786 51.766 31.8074 51.6808 32.3608C51.5955 32.9142 51.4845 33.4572 51.345 33.9846C51.2365 34.4678 51.1384 34.9589 51.0557 35.4577C50.9705 35.9566 50.9266 36.5022 50.9266 37.0945C50.9266 38.1234 51.0841 39.0977 51.4018 40.0174C51.7195 40.9372 52.1844 41.7114 52.7965 42.3453C53.4086 42.9767 54.1705 43.3924 55.0848 43.595C54.8214 44.2498 54.5398 44.8889 54.2351 45.5124C53.9329 46.136 53.5971 46.744 53.2252 47.3363H53.2304Z" fill="#FEFEFE"/>
<path d="M63.6207 38.1C63.2953 38.1 62.8718 38.0922 62.3526 38.0766C61.8335 38.061 61.2834 38.0428 60.7023 38.0195C60.1211 37.9961 59.5633 37.9675 59.0286 37.9389C58.494 37.9077 58.0472 37.8766 57.6934 37.8454C57.8483 36.988 58.073 35.8214 58.3675 34.3483C58.6619 32.8752 59.008 31.2124 59.4031 29.3573C59.7983 27.5023 60.2244 25.5615 60.6816 23.5349C61.1387 21.5084 61.6036 19.4975 62.0763 17.5021C62.5489 15.5067 63.0009 13.6257 63.4348 11.8538C63.8687 10.0845 64.2638 8.54378 64.6203 7.23432C65.7825 7.06285 67.0687 6.90696 68.4789 6.76666C69.8891 6.62636 71.307 6.55621 72.7327 6.55621C73.4145 6.55621 74.1067 6.577 74.8143 6.61337C75.5194 6.65234 76.1961 6.71989 76.8495 6.81343C77.1595 8.18524 77.4642 9.79867 77.7664 11.6537C78.0686 13.5088 78.3656 15.6808 78.66 18.1646C78.9545 20.651 79.2515 23.509 79.5537 26.7358C79.8559 29.9627 80.1555 33.626 80.4473 37.7259C80.0289 37.7882 79.4684 37.8506 78.7634 37.9129C78.0583 37.9753 77.3222 38.0221 76.5551 38.0532C75.788 38.0844 75.1036 38.1 74.4993 38.1C74.4683 37.6479 74.4373 37.0789 74.4063 36.393C74.3753 35.7071 74.3365 34.9589 74.2901 34.1483C74.2436 33.3376 74.1997 32.5218 74.1609 31.7034C74.1222 30.885 74.086 30.1134 74.055 29.3885C74.024 28.6636 73.993 28.0609 73.962 27.5776C73.4662 27.5776 72.885 27.5932 72.2187 27.6244C71.5523 27.6556 70.8627 27.6945 70.1499 27.7413C69.4371 27.7881 68.7552 27.8426 68.1044 27.905C67.4535 27.9673 66.8879 28.0271 66.4075 28.079C65.9271 28.1336 65.6017 28.1778 65.4312 28.209C65.1678 29.4405 64.9121 30.6876 64.6642 31.9502C64.4162 33.2129 64.2019 34.3795 64.0237 35.4447C63.8454 36.5125 63.7111 37.3985 63.6182 38.1H63.6207ZM66.1751 23.3687C66.671 23.2595 67.3838 23.1582 68.3136 23.0647C69.2434 22.9711 70.2119 22.8906 71.2192 22.8179C72.2264 22.7477 73.0942 22.6983 73.8226 22.6672C73.7916 22.2463 73.7399 21.5292 73.6728 20.5159C73.603 19.5026 73.5256 18.3933 73.4403 17.1851C73.3551 15.977 73.2673 14.8468 73.1717 13.7946C73.0787 12.7423 72.9935 11.9525 72.916 11.4225C72.5906 11.4225 72.1257 11.4433 71.5214 11.4797C70.917 11.5186 70.3359 11.5628 69.778 11.6096C69.2201 11.6563 68.825 11.6953 68.5925 11.7265C68.4995 12.1318 68.3627 12.7449 68.1845 13.5633C68.0062 14.3818 67.8048 15.3275 67.5801 16.4031C67.3554 17.4787 67.1178 18.6115 66.8698 19.804C66.6219 20.9966 66.3894 22.1865 66.1725 23.3713L66.1751 23.3687Z" fill="#FEFEFE"/>
<path d="M85.3054 37.3517C85.3674 36.4944 85.4165 35.32 85.4552 33.8313C85.494 32.3426 85.525 30.672 85.5482 28.8169C85.5714 26.9619 85.5818 25.0367 85.5818 23.0413C85.5818 21.0459 85.5714 19.0999 85.5482 17.1592C85.525 15.2184 85.494 13.4231 85.4552 11.768C85.4165 10.1156 85.3648 8.73604 85.3054 7.62924C85.6308 7.58248 86.1371 7.53311 86.8292 7.47855C87.5188 7.42399 88.2187 7.39801 88.9316 7.39801C89.35 7.39801 89.8175 7.4084 90.3392 7.43179C90.8583 7.45517 91.2121 7.48894 91.3955 7.53831C91.442 8.55158 91.473 9.78309 91.4885 11.2328C91.504 12.6826 91.5066 14.257 91.4988 15.9562C91.4911 17.6554 91.4678 19.4065 91.4291 21.207C91.3904 23.0075 91.3387 24.7664 91.2793 26.4786C91.2638 27.5542 91.2354 28.5597 91.1992 29.495C91.1605 30.4303 91.1088 31.1864 91.0494 31.7632C92.1807 31.7008 93.3971 31.6385 94.6988 31.5761C96.0005 31.5138 97.3332 31.4644 98.6969 31.4254C100.061 31.3865 101.386 31.3683 102.672 31.3683C102.718 31.7112 102.752 32.2101 102.775 32.8648C102.798 33.5195 102.814 34.208 102.822 34.9329C102.829 35.6578 102.824 36.2865 102.811 36.8165C101.045 37.0192 99.3142 37.1751 97.6148 37.2842C95.9179 37.3933 94.3088 37.4635 92.7928 37.4946C91.4446 37.5258 90.1429 37.5258 88.8877 37.4946C87.6325 37.4635 86.4392 37.4167 85.308 37.3543L85.3054 37.3517Z" fill="#FEFEFE"/>
<path d="M115.686 38.2169C115.004 38.2169 114.328 38.1935 113.651 38.1467C112.977 38.1 112.455 38.0454 112.083 37.9831C111.355 36.4398 110.603 34.5743 109.829 32.3841C109.054 30.1939 108.289 27.8686 107.538 25.403C106.786 22.9399 106.086 20.5133 105.435 18.1178C104.784 15.725 104.214 13.5399 103.726 11.5576C103.237 9.57781 102.884 7.98776 102.669 6.78743C103.212 6.60036 103.886 6.44967 104.691 6.33276C105.497 6.21584 106.295 6.12231 107.086 6.05216C107.876 5.98201 108.519 5.94824 109.015 5.94824C109.077 6.36913 109.224 7.13298 109.457 8.23978C109.689 9.34658 109.984 10.6872 110.34 12.2617C110.696 13.8361 111.099 15.5457 111.549 17.393C111.998 19.2402 112.463 21.1213 112.943 23.0413C113.424 24.9587 113.904 26.8215 114.385 28.6298C114.865 30.4381 115.307 32.0749 115.709 33.5403L115.221 33.6572C115.717 32.1451 116.192 30.4537 116.652 28.5831C117.109 26.7124 117.551 24.7716 117.977 22.7607C118.403 20.7497 118.793 18.7881 119.15 16.8785C119.506 14.9689 119.819 13.223 120.092 11.6407C120.364 10.0585 120.575 8.7568 120.73 7.73574C120.885 6.71468 120.978 6.09633 121.009 5.87549C121.955 5.90667 123.001 6.02098 124.147 6.21324C125.294 6.4081 126.309 6.67831 127.192 7.02126C126.495 10.2481 125.774 13.3425 125.031 16.3043C124.287 19.2662 123.566 22.0124 122.869 24.5456C122.171 27.0788 121.536 29.3131 120.963 31.2461C120.389 33.1791 119.919 34.738 119.555 35.9228C119.191 37.1075 118.964 37.8402 118.868 38.1208C118.527 38.1519 118.073 38.1753 117.51 38.1909C116.944 38.2065 116.337 38.2143 115.684 38.2143L115.686 38.2169Z" fill="#FEFEFE"/>
<path d="M133.91 38.1C133.584 38.1 133.161 38.0922 132.642 38.0766C132.123 38.061 131.572 38.0428 130.991 38.0195C130.41 37.9961 129.852 37.9675 129.318 37.9389C128.783 37.9077 128.336 37.8766 127.982 37.8454C128.137 36.988 128.362 35.8214 128.657 34.3483C128.951 32.8752 129.297 31.2124 129.692 29.3573C130.087 27.5023 130.514 25.5615 130.971 23.5349C131.428 21.5084 131.893 19.4975 132.365 17.5021C132.838 15.5067 133.29 13.6257 133.724 11.8538C134.158 10.0845 134.553 8.54378 134.909 7.23432C136.072 7.06285 137.358 6.90696 138.768 6.76666C140.178 6.62636 141.596 6.55621 143.022 6.55621C143.704 6.55621 144.396 6.577 145.103 6.61337C145.808 6.65234 146.485 6.71989 147.139 6.81343C147.449 8.18524 147.753 9.79867 148.055 11.6537C148.358 13.5088 148.655 15.6808 148.949 18.1646C149.244 20.651 149.541 23.509 149.843 26.7358C150.145 29.9627 150.445 33.626 150.736 37.7259C150.318 37.7882 149.758 37.8506 149.052 37.9129C148.347 37.9753 147.611 38.0221 146.844 38.0532C146.077 38.0844 145.393 38.1 144.788 38.1C144.757 37.6479 144.726 37.0789 144.695 36.393C144.664 35.7071 144.626 34.9589 144.579 34.1483C144.533 33.3376 144.489 32.5218 144.45 31.7034C144.411 30.885 144.375 30.1134 144.344 29.3885C144.313 28.6636 144.282 28.0609 144.251 27.5776C143.755 27.5776 143.174 27.5932 142.508 27.6244C141.841 27.6556 141.152 27.6945 140.439 27.7413C139.726 27.7881 139.044 27.8426 138.393 27.905C137.743 27.9673 137.177 28.0271 136.697 28.079C136.216 28.1336 135.891 28.1778 135.72 28.209C135.457 29.4405 135.201 30.6876 134.953 31.9502C134.705 33.2129 134.491 34.3795 134.313 35.4447C134.135 36.5125 134 37.3985 133.907 38.1H133.91ZM136.467 23.3687C136.963 23.2595 137.675 23.1582 138.605 23.0647C139.535 22.9711 140.504 22.8906 141.511 22.8179C142.518 22.7477 143.386 22.6983 144.114 22.6672C144.083 22.2463 144.032 21.5292 143.964 20.5159C143.895 19.5026 143.817 18.3933 143.732 17.1851C143.647 15.977 143.559 14.8468 143.463 13.7946C143.37 12.7423 143.285 11.9525 143.208 11.4225C142.882 11.4225 142.417 11.4433 141.813 11.4797C141.209 11.5186 140.628 11.5628 140.07 11.6096C139.512 11.6563 139.117 11.6953 138.884 11.7265C138.791 12.1318 138.654 12.7449 138.476 13.5633C138.298 14.3818 138.096 15.3275 137.872 16.4031C137.647 17.4787 137.409 18.6115 137.161 19.804C136.914 20.9966 136.681 22.1865 136.464 23.3713L136.467 23.3687Z" fill="#FEFEFE"/>
<path d="M156.248 38.3572C156.17 36.6113 156.065 34.4756 155.933 31.9503C155.801 29.4249 155.667 26.7176 155.527 23.8233C155.388 20.9316 155.243 18.0529 155.096 15.1846C154.949 12.3163 154.812 9.68176 154.688 7.2811C155.261 7.21874 155.974 7.16158 156.827 7.10702C157.679 7.05246 158.588 6.9953 159.556 6.93035C160.525 6.868 161.486 6.82123 162.439 6.79005C163.392 6.75887 164.247 6.74329 165.009 6.74329C166.186 6.74329 167.343 6.85241 168.485 7.07065C169.624 7.28889 170.662 7.67082 171.6 8.21642C172.537 8.76203 173.281 9.53627 173.831 10.5443C174.381 11.5498 174.655 12.8489 174.655 14.4389C174.655 16.029 174.268 17.5463 173.493 18.9415C172.718 20.3367 171.587 21.3551 170.099 21.9917C170.456 22.5996 170.853 23.392 171.295 24.3663C171.737 25.3406 172.186 26.3981 172.643 27.5335C173.1 28.6714 173.539 29.8068 173.958 30.937C174.376 32.0672 174.743 33.1142 175.061 34.0807C175.378 35.0472 175.613 35.8344 175.771 36.4424C175.43 36.6606 174.983 36.8711 174.436 37.0738C173.886 37.2764 173.315 37.4557 172.726 37.6116C172.137 37.7674 171.62 37.8948 171.179 37.9987C170.737 38.1 170.456 38.1572 170.332 38.1728C170.177 37.3777 169.952 36.4294 169.658 35.333C169.363 34.234 169.025 33.0752 168.645 31.8593C168.265 30.6434 167.886 29.4716 167.506 28.3415C167.126 27.2113 166.77 26.198 166.437 25.3017C166.104 24.4053 165.845 23.7324 165.657 23.2777C165.146 23.418 164.603 23.5349 164.03 23.6285C163.456 23.722 162.917 23.7922 162.416 23.8389C161.912 23.8857 161.522 23.9091 161.243 23.9091C161.274 24.2208 161.32 24.7872 161.382 25.603C161.444 26.4215 161.514 27.388 161.592 28.5025C161.669 29.6171 161.747 30.7707 161.824 31.9632C161.902 33.1558 161.974 34.286 162.046 35.3538C162.116 36.4216 162.165 37.305 162.196 38.0065C161.731 38.1 161.153 38.1728 160.463 38.2299C159.773 38.2845 159.061 38.3182 158.324 38.3338C157.588 38.3494 156.894 38.3572 156.245 38.3572H156.248ZM160.781 19.5572C161.401 19.5572 162.02 19.5338 162.64 19.4871C163.26 19.4403 163.965 19.339 164.756 19.1831C166.073 18.9025 167.088 18.5595 167.801 18.1542C168.513 17.7489 169.009 17.2553 169.288 16.6707C169.567 16.0861 169.707 15.395 169.707 14.6026C169.707 13.4646 169.466 12.6306 168.986 12.1006C168.506 11.5706 167.863 11.2328 167.057 11.0821C166.251 10.9341 165.36 10.8587 164.384 10.8587C164.136 10.8587 163.802 10.8691 163.384 10.8925C162.966 10.9159 162.532 10.9444 162.082 10.9756C161.633 11.0068 161.225 11.0432 160.861 11.0821C160.497 11.1211 160.236 11.1497 160.083 11.1627C160.114 11.4277 160.153 11.8486 160.2 12.4254C160.246 13.0022 160.3 13.6491 160.362 14.3662C160.424 15.0833 160.481 15.7977 160.535 16.507C160.59 17.2163 160.641 17.8477 160.685 18.4011C160.732 18.9545 160.763 19.3416 160.778 19.5598L160.781 19.5572Z" fill="#FEFEFE"/>
<path d="M196.069 38.0299C194.457 37.9208 192.871 37.8324 191.314 37.7597C189.757 37.6895 188.155 37.6298 186.515 37.5856C185.446 37.5544 184.333 37.5154 183.178 37.4687C182.024 37.4219 180.913 37.3829 179.841 37.3518C179.748 34.842 179.679 32.3842 179.632 29.9731C179.586 27.5646 179.562 25.2861 179.562 23.1322C179.562 19.3754 179.593 16.242 179.655 13.7323C179.717 11.2225 179.779 9.47653 179.841 8.49444C182.662 7.9956 185.281 7.62667 187.698 7.38244C190.116 7.14082 192.133 6.98233 193.755 6.90439C195.374 6.82645 196.392 6.78748 196.81 6.78748C196.81 7.5825 196.787 8.34375 196.74 9.06862C196.694 9.7935 196.632 10.5703 196.554 11.3965L185.35 12.3085C185.335 12.6203 185.319 13.0775 185.304 13.6777C185.288 14.2779 185.273 14.9222 185.257 15.6055C185.242 16.2914 185.234 16.9357 185.234 17.5333V18.8999C185.591 18.8843 186.094 18.8687 186.745 18.8531C187.396 18.8376 188.119 18.8194 188.92 18.796C189.718 18.7726 190.524 18.7518 191.337 18.7362C192.151 18.7206 192.902 18.7051 193.592 18.6895C194.282 18.6739 194.834 18.6661 195.253 18.6661L195.276 23.5531C195.059 23.5376 194.617 23.522 193.951 23.5064C193.285 23.4908 192.51 23.4752 191.626 23.4596C190.743 23.444 189.855 23.4336 188.966 23.4258C188.075 23.418 187.28 23.4102 186.585 23.4025C185.888 23.3947 185.392 23.3921 185.097 23.3921C185.097 23.5791 185.095 23.9351 185.087 24.4547C185.079 24.9769 185.077 25.5849 185.077 26.2786C185.077 26.9723 185.071 27.6894 185.066 28.4298C185.059 29.1703 185.056 29.8614 185.056 30.5005V32.0438C185.35 32.0282 185.932 32.0204 186.799 32.0204H189.333C190.278 32.0204 191.218 32.0308 192.159 32.0542C193.096 32.0776 193.964 32.114 194.762 32.1607C195.56 32.2075 196.198 32.2465 196.678 32.2776C196.678 32.7453 196.655 33.2753 196.609 33.8677C196.562 34.4601 196.508 35.0446 196.446 35.6214C196.384 36.1982 196.322 36.7022 196.26 37.1283C196.198 37.557 196.136 37.8558 196.074 38.0273L196.069 38.0299Z" fill="#FEFEFE"/>
<path d="M220.333 38.0766C217.591 38.0766 214.569 38.0091 211.268 37.8792C207.967 37.7467 204.364 37.5336 200.459 37.2374C200.444 36.8633 200.426 36.3515 200.402 35.7045C200.379 35.0576 200.359 34.3951 200.343 33.717C200.328 33.0389 200.32 32.4985 200.32 32.0932C200.971 31.3293 201.74 30.3732 202.634 29.2274C203.525 28.0817 204.473 26.8268 205.483 25.4628C206.49 24.0987 207.497 22.7113 208.505 21.3006C209.512 19.8898 210.46 18.5388 211.353 17.2423C212.244 15.9484 213.019 14.7975 213.678 13.792C214.336 12.7865 214.812 12.0123 215.109 11.4641C214.706 11.4641 213.988 11.4927 212.957 11.5472C211.927 11.6018 210.741 11.6693 209.401 11.7447C208.06 11.8226 206.707 11.9084 205.343 12.0019C203.98 12.0954 202.755 12.189 201.671 12.2825C201.64 11.9863 201.616 11.6122 201.601 11.1601C201.585 10.708 201.578 10.2715 201.578 9.85065C201.578 9.3674 201.585 8.92052 201.601 8.50742C201.616 8.09432 201.64 7.75657 201.671 7.48896C202.569 7.41102 203.636 7.32528 204.868 7.23175C206.1 7.13821 207.397 7.04988 208.763 6.96414C210.126 6.8784 211.475 6.80306 212.807 6.7407C214.14 6.67835 215.364 6.63937 216.48 6.62379C216.774 6.6082 217.216 6.6004 217.805 6.6004C218.394 6.6004 218.988 6.6056 219.584 6.6108C220.181 6.61859 220.61 6.63158 220.873 6.64457C220.935 6.92517 220.974 7.25773 220.99 7.63965C221.005 8.02157 221.013 8.40869 221.013 8.79841C221.013 9.32843 221.002 9.81947 220.979 10.2715C220.956 10.7236 220.922 11.0432 220.873 11.2303C220.346 12.2123 219.68 13.3399 218.874 14.6078C218.068 15.8783 217.188 17.2189 216.237 18.6297C215.284 20.0405 214.311 21.4409 213.319 22.8283C212.327 24.2157 211.379 25.5251 210.473 26.7566C209.566 27.9881 208.76 29.0612 208.055 29.9731C207.35 30.885 206.813 31.5605 206.441 31.997C206.983 32.0438 207.712 32.0906 208.626 32.1373C209.54 32.1841 210.542 32.2153 211.637 32.2309C212.73 32.2464 213.812 32.2542 214.879 32.2542C215.809 32.2542 216.762 32.2387 217.738 32.2075C218.714 32.1763 219.659 32.1451 220.574 32.1139C220.589 32.4257 220.605 32.8414 220.62 33.3636C220.636 33.8859 220.636 34.4133 220.62 34.9433C220.62 35.598 220.589 36.2216 220.527 36.8139C220.465 37.4063 220.403 37.8272 220.341 38.0766H220.333Z" fill="#FEFEFE"/>
<path d="M226.517 47.5C226.253 47.157 225.961 46.6296 225.644 45.9203C225.326 45.2111 225.107 44.4602 224.983 43.6652C226.47 43.2287 227.612 42.5142 228.41 41.5243C229.208 40.5344 229.608 39.3757 229.608 38.0506C229.608 37.3803 229.541 36.7568 229.409 36.18C229.278 35.6032 229.125 35.0342 228.957 34.473C228.787 33.8962 228.635 33.3039 228.505 32.6959C228.374 32.0879 228.309 31.4176 228.309 30.685C228.309 29.4067 228.588 28.2505 229.146 27.2113C229.704 26.1746 230.45 25.3406 231.39 24.7093C232.328 24.0779 233.338 23.7558 234.425 23.7376L234.355 24.3456C233.611 24.3144 232.821 24.1585 231.984 23.8779C231.148 23.5973 230.37 23.1894 229.65 22.6516C228.929 22.1138 228.34 21.4253 227.883 20.5835C227.426 19.7417 227.196 18.744 227.196 17.5904C227.196 16.8889 227.242 16.2914 227.335 15.8029C227.428 15.3145 227.537 14.8312 227.661 14.3636C227.785 13.8647 227.896 13.3425 227.997 12.7969C228.097 12.2513 228.149 11.6122 228.149 10.8795C228.149 9.83505 228.004 8.85036 227.718 7.92283C227.431 6.9953 226.966 6.20028 226.323 5.53776C225.68 4.87524 224.838 4.43615 223.802 4.21791C224.097 3.60995 224.469 2.96302 224.918 2.27711C225.367 1.59121 225.778 0.998839 226.15 0.5C227.591 0.733831 228.826 1.3314 229.856 2.2901C230.887 3.24881 231.677 4.41537 232.227 5.78718C232.777 7.15898 233.051 8.57756 233.051 10.0429C233.051 10.6664 232.994 11.2796 232.878 11.8772C232.762 12.4773 232.609 13.0801 232.426 13.6907C232.256 14.2674 232.113 14.8572 231.995 15.4548C231.878 16.0549 231.822 16.6291 231.822 17.1721C231.822 18.6375 232.274 19.7131 233.18 20.399C234.087 21.0849 235.221 21.4902 236.587 21.6149C236.711 21.8799 236.812 22.2203 236.889 22.6334C236.966 23.0465 237.005 23.4492 237.005 23.8363C237.005 24.2234 236.972 24.5924 236.902 24.9821C236.832 25.3718 236.734 25.6758 236.613 25.894C235.388 26.0811 234.466 26.6267 233.847 27.5308C233.227 28.435 232.917 29.534 232.917 30.8279C232.917 31.5449 232.979 32.1919 233.103 32.7687C233.227 33.3454 233.366 33.9066 233.521 34.4522C233.692 34.9978 233.831 35.5564 233.939 36.1228C234.048 36.6918 234.102 37.3362 234.102 38.0506C234.102 39.5472 233.792 40.9761 233.172 42.3427C232.553 43.7067 231.677 44.8525 230.546 45.78C229.415 46.7076 228.074 47.2792 226.524 47.5H226.517Z" fill="#FEFEFE"/>
</g>
<defs>
<clipPath id="clip0_79_202">
<rect width="237" height="47" fill="white" transform="translate(0 0.5)"/>
</clipPath>
</defs>
</svg>
